<svg xmlns="http://www.w3.org/2000/svg" xmlns:xlink="http://www.w3.org/1999/xlink" width="100" zoomAndPan="magnify" viewBox="0 0 75 74.999997" height="100" preserveAspectRatio="xMidYMid meet" version="1.0"><defs><clipPath id="352272662f"><path d="M 24.570312 46 L 50.070312 46 L 50.070312 52.5 L 24.570312 52.5 Z M 24.570312 46 " clip-rule="nonzero"/></clipPath><clipPath id="7a40d0038d"><path d="M 37 47 L 42 47 L 42 52.5 L 37 52.5 Z M 37 47 " clip-rule="nonzero"/></clipPath><clipPath id="77c2bc0427"><path d="M 32 47 L 38 47 L 38 52.5 L 32 52.5 Z M 32 47 " clip-rule="nonzero"/></clipPath><clipPath id="9dd3027227"><path d="M 26 22.5 L 48 22.5 L 48 34 L 26 34 Z M 26 22.5 " clip-rule="nonzero"/></clipPath></defs><rect x="-7.5" width="90" fill="#ffffff" y="-7.5" height="89.999996" fill-opacity="1"/><rect x="-7.5" width="90" fill="#ffffff" y="-7.5" height="89.999996" fill-opacity="1"/><g clip-path="url(#352272662f)"><path fill="#f3fcff" d="M 50.070312 52.496094 L 49.878906 51.769531 C 49.816406 51.535156 49.730469 51.308594 49.621094 51.097656 C 49.617188 51.085938 49.609375 51.074219 49.605469 51.0625 C 49.585938 51.023438 49.5625 50.980469 49.539062 50.941406 C 49.496094 50.867188 49.449219 50.792969 49.398438 50.722656 C 49.183594 50.40625 48.917969 50.132812 48.609375 49.910156 C 48.59375 49.902344 48.578125 49.890625 48.566406 49.882812 C 48.464844 49.8125 48.363281 49.75 48.257812 49.691406 C 48.242188 49.683594 48.226562 49.671875 48.210938 49.664062 C 48.039062 49.578125 47.863281 49.503906 47.675781 49.445312 L 42.402344 47.789062 L 42.3125 47.761719 C 38.960938 46.699219 35.628906 46.640625 32.324219 47.761719 L 26.960938 49.445312 C 26.640625 49.546875 26.339844 49.695312 26.070312 49.882812 C 26.058594 49.890625 26.042969 49.902344 26.03125 49.910156 C 25.972656 49.953125 25.917969 49.992188 25.867188 50.039062 C 25.824219 50.070312 25.785156 50.105469 25.746094 50.140625 C 25.722656 50.160156 25.695312 50.183594 25.671875 50.210938 C 25.660156 50.222656 25.648438 50.234375 25.636719 50.246094 C 25.621094 50.257812 25.609375 50.269531 25.597656 50.28125 C 25.585938 50.292969 25.574219 50.308594 25.5625 50.320312 C 25.183594 50.71875 24.902344 51.214844 24.757812 51.769531 L 24.570312 52.496094 Z M 50.070312 52.496094 " fill-opacity="1" fill-rule="nonzero"/></g><path fill="#ffd8cf" d="M 37.289062 51.835938 C 39.640625 51.835938 41.578125 49.152344 41.851562 47.621094 C 38.789062 46.738281 35.746094 46.695312 32.726562 47.628906 C 33.003906 49.160156 34.941406 51.835938 37.289062 51.835938 Z M 37.289062 51.835938 " fill-opacity="1" fill-rule="nonzero"/><path fill="#d98d7e" d="M 37.289062 51.835938 C 39.640625 51.835938 41.578125 49.152344 41.851562 47.621094 C 38.789062 46.738281 35.746094 46.695312 32.726562 47.628906 C 33.003906 49.160156 34.941406 51.835938 37.289062 51.835938 Z M 37.289062 51.835938 " fill-opacity="1" fill-rule="nonzero"/><path fill="#d98d7e" d="M 34.050781 47.277344 C 34.257812 45.929688 34.199219 44.570312 34.203125 43.210938 L 34.214844 41.179688 L 40.375 41.179688 L 40.386719 43.210938 C 40.390625 44.574219 40.332031 45.9375 40.539062 47.289062 L 40.425781 47.4375 C 38.800781 48.636719 35.566406 48.675781 34.050781 47.277344 Z M 34.050781 47.277344 " fill-opacity="1" fill-rule="nonzero"/><path fill="#b3685a" d="M 34.050781 47.277344 C 34.257812 45.929688 34.199219 44.570312 34.203125 43.210938 L 34.214844 41.179688 L 40.375 41.179688 L 40.386719 43.210938 C 40.386719 43.871094 40.375 44.527344 40.386719 45.183594 C 38.414062 46.777344 36.296875 47.441406 34.050781 47.277344 Z M 34.050781 47.277344 " fill-opacity="1" fill-rule="nonzero"/><g clip-path="url(#7a40d0038d)"><path fill="#f3fcff" d="M 37.289062 51.835938 C 37.289062 51.835938 37.617188 50.988281 38.082031 50.488281 C 38.546875 49.984375 38.546875 47.726562 39.042969 47.851562 C 39.535156 47.976562 41.582031 46.34375 41.921875 48.007812 C 41.921875 48.007812 41.367188 51.914062 39.371094 52.042969 C 37.371094 52.171875 37.277344 52.191406 37.277344 52.191406 Z M 37.289062 51.835938 " fill-opacity="1" fill-rule="nonzero"/></g><path fill="#c5dce2" d="M 40.726562 50.285156 C 40.386719 48.625 39.535156 47.976562 39.042969 47.851562 L 38.964844 47.851562 C 38.542969 47.964844 38.519531 50.011719 38.082031 50.488281 C 38.082031 50.488281 39.273438 50.058594 40.726562 50.285156 Z M 40.726562 50.285156 " fill-opacity="1" fill-rule="nonzero"/><g clip-path="url(#77c2bc0427)"><path fill="#f3fcff" d="M 37.300781 51.835938 C 37.300781 51.835938 36.972656 50.988281 36.507812 50.488281 C 36.042969 49.984375 36.042969 47.726562 35.550781 47.851562 C 35.054688 47.976562 33 46.273438 32.660156 47.9375 C 32.660156 47.9375 33.222656 51.914062 35.222656 52.042969 C 37.21875 52.171875 37.316406 52.191406 37.316406 52.191406 Z M 37.300781 51.835938 " fill-opacity="1" fill-rule="nonzero"/></g><path fill="#c5dce2" d="M 33.863281 50.285156 C 34.207031 48.625 35.054688 47.976562 35.550781 47.851562 L 35.625 47.851562 C 36.046875 47.964844 36.070312 50.011719 36.507812 50.488281 C 36.507812 50.488281 35.316406 50.058594 33.863281 50.285156 Z M 33.863281 50.285156 " fill-opacity="1" fill-rule="nonzero"/><path fill="#c5dce2" d="M 41.605469 49.269531 C 41.40625 49.769531 41.015625 50.445312 40.726562 50.871094 C 40.386719 49.011719 39.535156 48.289062 39.042969 48.148438 L 38.953125 48.148438 C 38.953125 48.148438 40.433594 46.957031 40.371094 45.550781 C 40.363281 45.339844 40.65625 45.339844 40.777344 45.382812 C 41.144531 45.515625 41.417969 45.933594 41.582031 46.3125 C 41.792969 46.785156 41.96875 47.382812 41.976562 47.917969 C 41.984375 48.40625 41.773438 48.835938 41.605469 49.269531 Z M 41.605469 49.269531 " fill-opacity="1" fill-rule="nonzero"/><path fill="#c5dce2" d="M 32.984375 49.269531 C 33.183594 49.769531 33.574219 50.445312 33.863281 50.871094 C 34.203125 49.011719 35.054688 48.289062 35.550781 48.148438 L 35.636719 48.148438 C 35.636719 48.148438 34.15625 46.957031 34.21875 45.550781 C 34.226562 45.339844 33.933594 45.339844 33.816406 45.382812 C 33.445312 45.515625 33.175781 45.933594 33.007812 46.3125 C 32.796875 46.785156 32.621094 47.382812 32.613281 47.917969 C 32.605469 48.40625 32.816406 48.835938 32.984375 49.269531 Z M 32.984375 49.269531 " fill-opacity="1" fill-rule="nonzero"/><path fill="#f3fcff" d="M 41.605469 48.851562 C 41.40625 49.300781 41.015625 49.90625 40.726562 50.285156 C 40.386719 48.625 39.535156 47.976562 39.042969 47.851562 L 38.953125 47.851562 C 38.953125 47.851562 40.433594 46.785156 40.371094 45.53125 C 40.363281 45.34375 40.65625 45.34375 40.777344 45.382812 C 41.144531 45.5 41.417969 45.871094 41.582031 46.210938 C 41.792969 46.636719 41.96875 47.167969 41.976562 47.648438 C 41.984375 48.082031 41.773438 48.46875 41.605469 48.851562 Z M 41.605469 48.851562 " fill-opacity="1" fill-rule="nonzero"/><path fill="#f3fcff" d="M 32.984375 48.851562 C 33.183594 49.300781 33.574219 49.90625 33.863281 50.285156 C 34.203125 48.625 35.054688 47.976562 35.550781 47.851562 L 35.636719 47.851562 C 35.636719 47.851562 34.15625 46.785156 34.21875 45.53125 C 34.226562 45.34375 33.933594 45.34375 33.816406 45.382812 C 33.445312 45.5 33.175781 45.871094 33.007812 46.210938 C 32.796875 46.636719 32.621094 47.167969 32.613281 47.648438 C 32.605469 48.082031 32.816406 48.46875 32.984375 48.851562 Z M 32.984375 48.851562 " fill-opacity="1" fill-rule="nonzero"/><path fill="#d48170" d="M 27.988281 38.890625 C 28.40625 39.914062 29.660156 40.785156 30.847656 41.003906 C 31.71875 41.164062 31.429688 40.082031 31.285156 38.832031 C 31.117188 37.324219 30.421875 35.910156 29.550781 35.765625 C 28.625 35.609375 27.996094 36.136719 27.808594 36.949219 C 27.664062 37.589844 27.738281 38.273438 27.988281 38.890625 Z M 27.988281 38.890625 " fill-opacity="1" fill-rule="nonzero"/><path fill="#d48170" d="M 46.25 38.890625 C 45.832031 39.914062 44.578125 40.785156 43.394531 41.003906 C 42.519531 41.164062 42.8125 40.082031 42.953125 38.832031 C 43.125 37.324219 43.816406 35.910156 44.691406 35.765625 C 45.613281 35.609375 46.246094 36.136719 46.429688 36.949219 C 46.578125 37.589844 46.503906 38.273438 46.25 38.890625 Z M 46.25 38.890625 " fill-opacity="1" fill-rule="nonzero"/><path fill="#b3685a" d="M 30.464844 38.609375 C 30.492188 38.609375 30.515625 38.601562 30.542969 38.589844 C 30.628906 38.546875 30.667969 38.441406 30.625 38.351562 C 30.335938 37.738281 29.898438 37.457031 29.585938 37.328125 C 29.242188 37.1875 28.964844 37.191406 28.953125 37.195312 C 28.855469 37.195312 28.777344 37.277344 28.78125 37.375 C 28.785156 37.476562 28.863281 37.550781 28.960938 37.550781 C 28.96875 37.550781 29.191406 37.546875 29.46875 37.664062 C 29.835938 37.820312 30.117188 38.101562 30.308594 38.507812 C 30.335938 38.570312 30.398438 38.609375 30.464844 38.609375 Z M 30.464844 38.609375 " fill-opacity="1" fill-rule="nonzero"/><path fill="#b3685a" d="M 43.722656 38.609375 C 43.695312 38.609375 43.671875 38.605469 43.644531 38.59375 C 43.558594 38.550781 43.519531 38.445312 43.5625 38.355469 C 43.851562 37.742188 44.289062 37.460938 44.601562 37.328125 C 44.945312 37.1875 45.222656 37.195312 45.234375 37.195312 C 45.332031 37.199219 45.410156 37.28125 45.40625 37.378906 C 45.402344 37.476562 45.324219 37.554688 45.226562 37.550781 C 45.21875 37.550781 44.996094 37.550781 44.71875 37.667969 C 44.355469 37.820312 44.070312 38.105469 43.882812 38.507812 C 43.851562 38.574219 43.789062 38.609375 43.722656 38.609375 Z M 43.722656 38.609375 " fill-opacity="1" fill-rule="nonzero"/><path fill="#d98d7e" d="M 44.609375 35.019531 C 44.609375 35.996094 43.777344 40.21875 42.652344 41.964844 C 41.488281 43.777344 38.355469 45.359375 37.160156 45.359375 C 35.8125 45.359375 32.664062 43.832031 31.527344 42.074219 C 30.398438 40.320312 29.707031 36.015625 29.707031 35.019531 C 29.707031 32.089844 30.34375 28.097656 37.15625 28.097656 C 43.6875 28.097656 44.609375 32.089844 44.609375 35.019531 Z M 44.609375 35.019531 " fill-opacity="1" fill-rule="nonzero"/><path fill="#b3685a" d="M 37.171875 42.582031 C 36.710938 42.582031 36.132812 42.394531 35.722656 42.105469 C 35.640625 42.050781 35.621094 41.9375 35.675781 41.859375 C 35.730469 41.777344 35.839844 41.757812 35.921875 41.8125 C 36.28125 42.0625 36.808594 42.234375 37.199219 42.226562 C 37.574219 42.214844 38.117188 42.066406 38.484375 41.753906 C 38.558594 41.6875 38.667969 41.699219 38.730469 41.773438 C 38.792969 41.847656 38.785156 41.960938 38.710938 42.023438 C 38.328125 42.351562 37.738281 42.570312 37.207031 42.582031 C 37.195312 42.582031 37.183594 42.582031 37.171875 42.582031 Z M 37.171875 42.582031 " fill-opacity="1" fill-rule="nonzero"/><path fill="#b3685a" d="M 37.195312 40.453125 C 37 40.453125 36.757812 40.375 36.582031 40.253906 C 36.503906 40.195312 36.484375 40.085938 36.539062 40.003906 C 36.59375 39.921875 36.703125 39.902344 36.78125 39.960938 C 36.917969 40.050781 37.09375 40.097656 37.203125 40.097656 C 37.347656 40.09375 37.519531 40.03125 37.621094 39.941406 C 37.695312 39.878906 37.804688 39.890625 37.871094 39.964844 C 37.933594 40.039062 37.921875 40.152344 37.847656 40.214844 C 37.6875 40.355469 37.4375 40.449219 37.210938 40.453125 C 37.207031 40.453125 37.199219 40.453125 37.195312 40.453125 Z M 37.195312 40.453125 " fill-opacity="1" fill-rule="nonzero"/><path fill="#000000" d="M 41.417969 36.925781 C 41.417969 36.835938 41.398438 36.746094 41.367188 36.660156 C 41.296875 36.472656 41.125 36.308594 40.933594 36.242188 C 39.953125 35.921875 39.558594 37.4375 40.558594 37.660156 C 40.757812 37.699219 40.984375 37.640625 41.140625 37.511719 L 41.140625 37.515625 C 41.3125 37.375 41.421875 37.152344 41.417969 36.925781 Z M 41.417969 36.925781 " fill-opacity="1" fill-rule="nonzero"/><path fill="#000000" d="M 34.347656 36.933594 C 34.347656 36.839844 34.332031 36.75 34.296875 36.660156 L 34.296875 36.664062 C 34.21875 36.460938 34.058594 36.3125 33.867188 36.242188 C 33.378906 36.050781 32.820312 36.503906 32.902344 37.03125 C 32.957031 37.566406 33.625 37.859375 34.046875 37.53125 C 34.210938 37.410156 34.324219 37.222656 34.347656 37.007812 C 34.347656 36.980469 34.347656 36.957031 34.347656 36.933594 Z M 34.347656 36.933594 " fill-opacity="1" fill-rule="nonzero"/><path fill="#5e4241" d="M 34.625 35.078125 C 34.59375 35.078125 34.5625 35.066406 34.53125 35.050781 C 33.441406 34.375 32.464844 34.929688 32.453125 34.933594 C 32.367188 34.984375 32.261719 34.953125 32.214844 34.867188 C 32.164062 34.78125 32.195312 34.671875 32.277344 34.625 C 32.289062 34.617188 32.578125 34.453125 33.019531 34.386719 C 33.429688 34.324219 34.054688 34.335938 34.714844 34.746094 C 34.796875 34.796875 34.824219 34.90625 34.773438 34.992188 C 34.742188 35.046875 34.683594 35.078125 34.625 35.078125 Z M 34.625 35.078125 " fill-opacity="1" fill-rule="nonzero"/><path fill="#5e4241" d="M 39.691406 35.078125 C 39.632812 35.078125 39.574219 35.046875 39.542969 34.992188 C 39.492188 34.90625 39.515625 34.796875 39.601562 34.746094 C 40.261719 34.335938 40.886719 34.324219 41.292969 34.386719 C 41.738281 34.453125 42.023438 34.617188 42.035156 34.625 C 42.121094 34.671875 42.152344 34.78125 42.101562 34.867188 C 42.054688 34.953125 41.945312 34.984375 41.863281 34.933594 C 41.859375 34.929688 41.609375 34.792969 41.226562 34.738281 C 40.722656 34.664062 40.238281 34.769531 39.78125 35.050781 C 39.753906 35.066406 39.722656 35.078125 39.691406 35.078125 Z M 39.691406 35.078125 " fill-opacity="1" fill-rule="nonzero"/><path fill="#966a68" d="M 45.527344 32.535156 C 45.460938 32.15625 45.296875 31.921875 45.042969 31.835938 C 44.800781 31.75 44.5 31.816406 44.148438 32.03125 C 43.90625 32.175781 43.726562 32.34375 43.71875 32.351562 C 43.671875 32.394531 43.648438 32.457031 43.664062 32.519531 C 43.664062 32.527344 43.820312 33.234375 43.945312 34.203125 C 44.0625 35.089844 44.175781 36.382812 44.058594 37.507812 C 44.046875 37.597656 44.105469 37.679688 44.191406 37.699219 C 44.207031 37.703125 44.21875 37.703125 44.234375 37.703125 C 44.304688 37.703125 44.371094 37.660156 44.398438 37.585938 C 44.402344 37.578125 44.742188 36.648438 45.050781 35.574219 C 45.46875 34.113281 45.628906 33.089844 45.527344 32.535156 Z M 45.527344 32.535156 " fill-opacity="1" fill-rule="nonzero"/><path fill="#966a68" d="M 30.554688 32.351562 C 30.550781 32.34375 30.367188 32.175781 30.125 32.03125 C 29.773438 31.816406 29.472656 31.75 29.230469 31.835938 C 28.976562 31.921875 28.8125 32.15625 28.746094 32.535156 C 28.644531 33.089844 28.804688 34.113281 29.222656 35.574219 C 29.53125 36.648438 29.875 37.578125 29.875 37.585938 C 29.902344 37.660156 29.96875 37.703125 30.042969 37.703125 C 30.054688 37.703125 30.066406 37.703125 30.082031 37.699219 C 30.167969 37.679688 30.226562 37.597656 30.214844 37.507812 C 30.097656 36.382812 30.210938 35.089844 30.328125 34.203125 C 30.453125 33.234375 30.609375 32.527344 30.609375 32.519531 C 30.625 32.457031 30.601562 32.394531 30.554688 32.351562 Z M 30.554688 32.351562 " fill-opacity="1" fill-rule="nonzero"/><g clip-path="url(#9dd3027227)"><path fill="#5e4241" d="M 47.285156 29.851562 C 47.328125 29.808594 47.371094 29.765625 47.40625 29.714844 C 47.550781 29.507812 47.613281 29.304688 47.597656 29.101562 C 47.582031 28.898438 47.488281 28.730469 47.402344 28.585938 C 47.339844 28.476562 47.28125 28.375 47.261719 28.273438 C 47.246094 28.191406 47.261719 28.125 47.28125 28.042969 C 47.300781 27.960938 47.320312 27.867188 47.316406 27.75 C 47.296875 27.371094 46.957031 26.828125 46.71875 26.605469 C 46.589844 26.480469 46.429688 26.40625 46.292969 26.34375 C 46.128906 26.269531 45.988281 26.203125 45.898438 26.066406 C 45.839844 25.976562 45.8125 25.859375 45.785156 25.738281 C 45.753906 25.609375 45.722656 25.476562 45.652344 25.347656 C 45.457031 24.980469 45.203125 24.949219 45 24.925781 C 44.882812 24.910156 44.78125 24.898438 44.675781 24.828125 C 44.640625 24.804688 44.605469 24.75 44.570312 24.695312 C 44.550781 24.664062 44.535156 24.636719 44.511719 24.605469 C 44.257812 24.246094 43.9375 24.246094 43.652344 24.242188 C 43.515625 24.242188 43.386719 24.238281 43.261719 24.199219 C 43.167969 24.171875 43.15625 24.148438 43.101562 24.046875 C 43.082031 24.011719 43.058594 23.964844 43.023438 23.914062 C 42.898438 23.714844 42.726562 23.539062 42.535156 23.414062 C 42.332031 23.277344 42.105469 23.195312 41.875 23.167969 C 41.8125 23.160156 41.75 23.15625 41.691406 23.15625 C 41.488281 23.144531 41.296875 23.132812 41.207031 23.015625 C 41.1875 22.992188 41.171875 22.957031 41.152344 22.921875 C 41.125 22.871094 41.097656 22.816406 41.054688 22.761719 C 40.914062 22.585938 40.671875 22.503906 40.367188 22.535156 C 40.207031 22.550781 40.070312 22.601562 39.9375 22.648438 C 39.839844 22.6875 39.746094 22.71875 39.65625 22.734375 C 39.515625 22.757812 39.359375 22.738281 39.195312 22.71875 C 39.085938 22.703125 38.976562 22.6875 38.863281 22.6875 C 38.648438 22.683594 38.464844 22.714844 38.316406 22.785156 C 38.261719 22.8125 38.207031 22.855469 38.152344 22.902344 C 38.125 22.925781 38.082031 22.960938 38.058594 22.976562 C 38 22.96875 37.933594 22.917969 37.859375 22.859375 C 37.722656 22.757812 37.539062 22.617188 37.285156 22.664062 C 37.203125 22.679688 37.140625 22.714844 37.082031 22.746094 C 37.066406 22.753906 37.050781 22.761719 37.035156 22.769531 C 36.734375 22.917969 36.351562 22.824219 35.980469 22.734375 L 35.964844 22.730469 C 35.53125 22.625 35.03125 22.554688 34.648438 22.828125 C 34.574219 22.882812 34.507812 22.941406 34.445312 22.996094 C 34.269531 23.15625 34.160156 23.242188 33.996094 23.207031 C 33.589844 23.121094 33.289062 23.074219 32.851562 23.1875 C 32.757812 23.210938 32.667969 23.238281 32.578125 23.265625 C 32.324219 23.339844 32.082031 23.410156 31.835938 23.421875 C 31.796875 23.425781 31.761719 23.425781 31.71875 23.425781 C 31.621094 23.429688 31.515625 23.429688 31.410156 23.453125 C 31.082031 23.519531 30.789062 23.761719 30.597656 24.113281 C 30.519531 24.265625 30.484375 24.449219 30.449219 24.628906 C 30.414062 24.8125 30.378906 25 30.304688 25.085938 C 30.222656 25.179688 30.0625 25.222656 29.894531 25.265625 C 29.699219 25.320312 29.476562 25.378906 29.3125 25.535156 C 29.289062 25.558594 29.269531 25.578125 29.246094 25.601562 C 29.183594 25.664062 29.125 25.726562 29.0625 25.75 C 29.019531 25.769531 28.964844 25.777344 28.90625 25.785156 C 28.84375 25.792969 28.773438 25.800781 28.703125 25.824219 C 28.371094 25.929688 28.085938 26.308594 28.0625 26.667969 C 28.054688 26.757812 28.058594 26.847656 28.0625 26.933594 C 28.066406 27.03125 28.066406 27.128906 28.058594 27.21875 C 28.042969 27.332031 27.988281 27.476562 27.878906 27.515625 C 27.867188 27.519531 27.847656 27.527344 27.828125 27.53125 C 27.792969 27.539062 27.757812 27.550781 27.714844 27.566406 C 27.429688 27.6875 27.363281 28.035156 27.398438 28.296875 L 27.398438 28.320312 C 27.433594 28.582031 27.460938 28.808594 27.433594 29.058594 C 27.425781 29.128906 27.417969 29.195312 27.394531 29.246094 C 27.367188 29.304688 27.3125 29.359375 27.253906 29.417969 C 27.234375 29.441406 27.210938 29.460938 27.1875 29.488281 C 26.832031 29.871094 26.726562 30.480469 26.925781 31.003906 C 26.964844 31.105469 27.011719 31.199219 27.058594 31.289062 C 27.105469 31.382812 27.152344 31.476562 27.1875 31.570312 C 27.246094 31.742188 27.234375 31.78125 27.191406 31.929688 C 27.179688 31.976562 27.164062 32.035156 27.144531 32.109375 C 27.089844 32.359375 27.164062 32.617188 27.355469 32.832031 C 27.605469 33.121094 28.035156 33.300781 28.378906 33.265625 L 28.382812 33.265625 C 28.609375 33.648438 29.023438 33.875 29.5 33.875 C 29.527344 33.875 29.550781 33.875 29.574219 33.871094 C 29.992188 33.851562 30.175781 33.632812 30.355469 33.425781 C 30.414062 33.355469 30.472656 33.285156 30.542969 33.214844 C 30.585938 33.175781 30.625 33.140625 30.660156 33.109375 C 30.808594 32.984375 30.949219 32.863281 30.976562 32.539062 C 30.988281 32.441406 30.984375 32.332031 30.980469 32.230469 C 30.976562 32.042969 30.972656 31.851562 31.035156 31.726562 C 31.113281 31.570312 31.269531 31.53125 31.515625 31.480469 C 31.761719 31.433594 32.039062 31.378906 32.222656 31.113281 C 32.25 31.070312 32.277344 31.027344 32.300781 30.992188 C 32.335938 30.9375 32.371094 30.882812 32.386719 30.871094 C 32.394531 30.867188 32.425781 30.859375 32.554688 30.878906 C 32.609375 30.890625 32.664062 30.902344 32.714844 30.910156 C 33.007812 30.972656 33.3125 31.035156 33.652344 30.765625 C 33.734375 30.703125 33.804688 30.625 33.875 30.554688 C 33.976562 30.445312 34.074219 30.34375 34.1875 30.304688 C 34.375 30.246094 34.585938 30.359375 34.8125 30.484375 C 35.074219 30.625 35.367188 30.785156 35.6875 30.699219 C 35.847656 30.65625 35.980469 30.558594 36.097656 30.476562 C 36.257812 30.359375 36.363281 30.292969 36.464844 30.3125 C 36.574219 30.332031 36.683594 30.460938 36.789062 30.585938 C 36.867188 30.679688 36.949219 30.777344 37.046875 30.847656 C 37.179688 30.945312 37.320312 30.96875 37.464844 30.925781 C 37.601562 30.882812 37.691406 30.785156 37.765625 30.707031 C 37.78125 30.691406 37.796875 30.675781 37.808594 30.660156 C 38.058594 30.410156 38.46875 30.332031 38.789062 30.472656 C 38.867188 30.507812 38.945312 30.558594 39.03125 30.609375 C 39.207031 30.71875 39.410156 30.84375 39.652344 30.84375 C 39.652344 30.84375 39.65625 30.84375 39.65625 30.84375 C 39.839844 30.839844 40.003906 30.769531 40.144531 30.703125 C 40.195312 30.679688 40.242188 30.660156 40.285156 30.640625 C 40.5 30.558594 40.558594 30.625 40.6875 30.761719 C 40.796875 30.875 40.941406 31.027344 41.195312 31.042969 C 41.351562 31.050781 41.488281 31.023438 41.574219 31.003906 C 41.628906 30.988281 41.679688 30.976562 41.730469 30.960938 C 41.972656 30.890625 42.144531 30.84375 42.417969 31.015625 C 42.609375 31.136719 42.746094 31.269531 42.796875 31.386719 C 42.816406 31.433594 42.804688 31.492188 42.777344 31.585938 C 42.753906 31.667969 42.730469 31.765625 42.738281 31.875 C 42.761719 32.09375 42.875 32.296875 43.042969 32.414062 C 43.257812 32.566406 43.472656 32.925781 43.578125 33.195312 C 43.691406 33.484375 44.03125 33.589844 44.292969 33.523438 C 44.449219 33.484375 44.542969 33.378906 44.621094 33.292969 C 44.652344 33.257812 44.683594 33.222656 44.714844 33.195312 C 44.773438 33.152344 44.832031 33.15625 44.972656 33.1875 C 45.015625 33.195312 45.058594 33.203125 45.105469 33.207031 C 45.660156 33.28125 46.117188 33.136719 46.367188 32.808594 C 46.484375 32.65625 46.667969 32.339844 46.703125 32.09375 C 46.71875 31.984375 46.6875 31.871094 46.664062 31.78125 C 46.660156 31.769531 46.65625 31.753906 46.652344 31.742188 C 46.640625 31.699219 46.617188 31.652344 46.59375 31.605469 C 46.582031 31.585938 46.570312 31.554688 46.558594 31.535156 C 46.632812 31.425781 46.738281 31.332031 46.847656 31.230469 C 46.972656 31.113281 47.105469 30.992188 47.210938 30.835938 C 47.289062 30.714844 47.394531 30.53125 47.375 30.324219 C 47.363281 30.203125 47.292969 30.113281 47.238281 30.042969 C 47.21875 30.023438 47.195312 29.988281 47.183594 29.972656 C 47.195312 29.941406 47.25 29.890625 47.285156 29.851562 Z M 47.285156 29.851562 " fill-opacity="1" fill-rule="nonzero"/></g><path fill="#7c5959" d="M 29.625 27.414062 C 29.324219 27.65625 29.257812 27.929688 29.390625 28.097656 C 29.519531 28.269531 29.800781 28.269531 30.101562 28.027344 C 30.402344 27.789062 30.351562 27.605469 30.222656 27.433594 C 30.089844 27.265625 29.925781 27.175781 29.625 27.414062 Z M 29.625 27.414062 " fill-opacity="1" fill-rule="nonzero"/><path fill="#7c5959" d="M 45.503906 27.414062 C 45.804688 27.65625 45.871094 27.929688 45.738281 28.097656 C 45.609375 28.269531 45.328125 28.269531 45.027344 28.027344 C 44.726562 27.789062 44.777344 27.605469 44.90625 27.433594 C 45.039062 27.265625 45.203125 27.175781 45.503906 27.414062 Z M 45.503906 27.414062 " fill-opacity="1" fill-rule="nonzero"/><path fill="#7c5959" d="M 44.011719 28.433594 C 44.128906 28.824219 44.023438 29.101562 43.808594 29.167969 C 43.597656 29.230469 43.355469 29.0625 43.238281 28.671875 C 43.121094 28.28125 43.273438 28.152344 43.488281 28.085938 C 43.699219 28.019531 43.894531 28.042969 44.011719 28.433594 Z M 44.011719 28.433594 " fill-opacity="1" fill-rule="nonzero"/></svg>